<<<<<<< Updated upstream
<mxfile host="Electron" agent="Mozilla/5.0 (Windows NT 10.0; Win64; x64) AppleWebKit/537.36 (KHTML, like Gecko) draw.io/25.0.1 Chrome/128.0.6613.186 Electron/32.2.6 Safari/537.36" version="25.0.1" pages="4">
  <diagram name="Breakdown" id="qxBII-Ex1DiAU2pqLQuO">
    <mxGraphModel dx="1434" dy="884" grid="1" gridSize="10" guides="1" tooltips="1" connect="1" arrows="1" fold="1" page="1" pageScale="1" pageWidth="1600" pageHeight="1200" math="0" shadow="0">
      <root>
        <mxCell id="0" />
        <mxCell id="1" parent="0" />
=======
<mxfile host="Electron" agent="Mozilla/5.0 (Windows NT 10.0; Win64; x64) AppleWebKit/537.36 (KHTML, like Gecko) draw.io/26.0.4 Chrome/128.0.6613.186 Electron/32.2.5 Safari/537.36" version="26.0.4" pages="4">
  <diagram name="Breakdown" id="qxBII-Ex1DiAU2pqLQuO">
    <mxGraphModel dx="1050" dy="669" grid="1" gridSize="10" guides="1" tooltips="1" connect="1" arrows="1" fold="1" page="1" pageScale="1" pageWidth="1600" pageHeight="1200" math="0" shadow="0">
      <root>
        <mxCell id="0" />
        <mxCell id="1" parent="0" />
        <mxCell id="0yohmy16e6GAOJUEdsjz-19" style="edgeStyle=orthogonalEdgeStyle;rounded=0;orthogonalLoop=1;jettySize=auto;html=1;exitX=0.5;exitY=1;exitDx=0;exitDy=0;entryX=0.5;entryY=0;entryDx=0;entryDy=0;" edge="1" parent="1" source="0yohmy16e6GAOJUEdsjz-1" target="0yohmy16e6GAOJUEdsjz-3">
          <mxGeometry relative="1" as="geometry" />
        </mxCell>
        <mxCell id="0yohmy16e6GAOJUEdsjz-20" style="edgeStyle=orthogonalEdgeStyle;rounded=0;orthogonalLoop=1;jettySize=auto;html=1;exitX=0.5;exitY=1;exitDx=0;exitDy=0;entryX=0.5;entryY=0;entryDx=0;entryDy=0;" edge="1" parent="1" source="0yohmy16e6GAOJUEdsjz-1" target="0yohmy16e6GAOJUEdsjz-4">
          <mxGeometry relative="1" as="geometry" />
        </mxCell>
        <mxCell id="0yohmy16e6GAOJUEdsjz-1" value="&lt;font style=&quot;font-size: 18px;&quot;&gt;調頻呼吸燈&lt;/font&gt;" style="rounded=0;whiteSpace=wrap;html=1;" vertex="1" parent="1">
          <mxGeometry x="500" y="220" width="120" height="60" as="geometry" />
        </mxCell>
        <mxCell id="0yohmy16e6GAOJUEdsjz-2" value="&lt;font style=&quot;font-size: 18px;&quot;&gt;Breakdown&lt;/font&gt;" style="text;html=1;align=center;verticalAlign=middle;resizable=0;points=[];autosize=1;strokeColor=none;fillColor=none;" vertex="1" parent="1">
          <mxGeometry x="265" y="155" width="110" height="40" as="geometry" />
        </mxCell>
        <mxCell id="0yohmy16e6GAOJUEdsjz-21" style="edgeStyle=orthogonalEdgeStyle;rounded=0;orthogonalLoop=1;jettySize=auto;html=1;exitX=0.5;exitY=1;exitDx=0;exitDy=0;entryX=0.5;entryY=0;entryDx=0;entryDy=0;" edge="1" parent="1" source="0yohmy16e6GAOJUEdsjz-3" target="0yohmy16e6GAOJUEdsjz-5">
          <mxGeometry relative="1" as="geometry" />
        </mxCell>
        <mxCell id="0yohmy16e6GAOJUEdsjz-22" style="edgeStyle=orthogonalEdgeStyle;rounded=0;orthogonalLoop=1;jettySize=auto;html=1;exitX=0.5;exitY=1;exitDx=0;exitDy=0;entryX=0.5;entryY=0;entryDx=0;entryDy=0;" edge="1" parent="1" source="0yohmy16e6GAOJUEdsjz-3" target="0yohmy16e6GAOJUEdsjz-6">
          <mxGeometry relative="1" as="geometry" />
        </mxCell>
        <mxCell id="0yohmy16e6GAOJUEdsjz-3" value="&lt;span style=&quot;font-size: 18px;&quot;&gt;duty_cycle&lt;/span&gt;" style="rounded=0;whiteSpace=wrap;html=1;" vertex="1" parent="1">
          <mxGeometry x="320" y="320" width="120" height="60" as="geometry" />
        </mxCell>
        <mxCell id="0yohmy16e6GAOJUEdsjz-17" style="edgeStyle=orthogonalEdgeStyle;rounded=0;orthogonalLoop=1;jettySize=auto;html=1;exitX=0.5;exitY=1;exitDx=0;exitDy=0;entryX=0.5;entryY=0;entryDx=0;entryDy=0;" edge="1" parent="1" source="0yohmy16e6GAOJUEdsjz-4" target="0yohmy16e6GAOJUEdsjz-7">
          <mxGeometry relative="1" as="geometry" />
        </mxCell>
        <mxCell id="0yohmy16e6GAOJUEdsjz-18" style="edgeStyle=orthogonalEdgeStyle;rounded=0;orthogonalLoop=1;jettySize=auto;html=1;exitX=0.5;exitY=1;exitDx=0;exitDy=0;entryX=0.5;entryY=0;entryDx=0;entryDy=0;" edge="1" parent="1" source="0yohmy16e6GAOJUEdsjz-4" target="0yohmy16e6GAOJUEdsjz-8">
          <mxGeometry relative="1" as="geometry" />
        </mxCell>
        <mxCell id="0yohmy16e6GAOJUEdsjz-4" value="&lt;span style=&quot;font-size: 18px;&quot;&gt;PWM&lt;/span&gt;" style="rounded=0;whiteSpace=wrap;html=1;" vertex="1" parent="1">
          <mxGeometry x="700" y="320" width="120" height="60" as="geometry" />
        </mxCell>
        <mxCell id="0yohmy16e6GAOJUEdsjz-5" value="&lt;span style=&quot;font-size: 18px;&quot;&gt;呼吸頻率調變&lt;/span&gt;" style="rounded=0;whiteSpace=wrap;html=1;" vertex="1" parent="1">
          <mxGeometry x="240" y="440" width="120" height="60" as="geometry" />
        </mxCell>
        <mxCell id="0yohmy16e6GAOJUEdsjz-15" style="edgeStyle=orthogonalEdgeStyle;rounded=0;orthogonalLoop=1;jettySize=auto;html=1;exitX=0.5;exitY=1;exitDx=0;exitDy=0;entryX=0.5;entryY=0;entryDx=0;entryDy=0;" edge="1" parent="1" source="0yohmy16e6GAOJUEdsjz-6" target="0yohmy16e6GAOJUEdsjz-9">
          <mxGeometry relative="1" as="geometry" />
        </mxCell>
        <mxCell id="0yohmy16e6GAOJUEdsjz-16" style="edgeStyle=orthogonalEdgeStyle;rounded=0;orthogonalLoop=1;jettySize=auto;html=1;exitX=0.5;exitY=1;exitDx=0;exitDy=0;entryX=0.5;entryY=0;entryDx=0;entryDy=0;" edge="1" parent="1" source="0yohmy16e6GAOJUEdsjz-6" target="0yohmy16e6GAOJUEdsjz-10">
          <mxGeometry relative="1" as="geometry" />
        </mxCell>
        <mxCell id="0yohmy16e6GAOJUEdsjz-6" value="&lt;span style=&quot;font-size: 18px;&quot;&gt;調節&lt;/span&gt;" style="rounded=0;whiteSpace=wrap;html=1;" vertex="1" parent="1">
          <mxGeometry x="400" y="440" width="120" height="60" as="geometry" />
        </mxCell>
        <mxCell id="0yohmy16e6GAOJUEdsjz-7" value="&lt;span style=&quot;font-size: 18px;&quot;&gt;PWM_counter&lt;/span&gt;" style="rounded=0;whiteSpace=wrap;html=1;" vertex="1" parent="1">
          <mxGeometry x="600" y="440" width="120" height="60" as="geometry" />
        </mxCell>
        <mxCell id="0yohmy16e6GAOJUEdsjz-13" style="edgeStyle=orthogonalEdgeStyle;rounded=0;orthogonalLoop=1;jettySize=auto;html=1;exitX=0.5;exitY=1;exitDx=0;exitDy=0;entryX=0.5;entryY=0;entryDx=0;entryDy=0;" edge="1" parent="1" source="0yohmy16e6GAOJUEdsjz-8" target="0yohmy16e6GAOJUEdsjz-11">
          <mxGeometry relative="1" as="geometry" />
        </mxCell>
        <mxCell id="0yohmy16e6GAOJUEdsjz-14" style="edgeStyle=orthogonalEdgeStyle;rounded=0;orthogonalLoop=1;jettySize=auto;html=1;exitX=0.5;exitY=1;exitDx=0;exitDy=0;entryX=0.5;entryY=0;entryDx=0;entryDy=0;" edge="1" parent="1" source="0yohmy16e6GAOJUEdsjz-8" target="0yohmy16e6GAOJUEdsjz-12">
          <mxGeometry relative="1" as="geometry" />
        </mxCell>
        <mxCell id="0yohmy16e6GAOJUEdsjz-8" value="&lt;span style=&quot;font-size: 18px;&quot;&gt;輪流計數數&lt;/span&gt;" style="rounded=0;whiteSpace=wrap;html=1;" vertex="1" parent="1">
          <mxGeometry x="800" y="440" width="120" height="60" as="geometry" />
        </mxCell>
        <mxCell id="0yohmy16e6GAOJUEdsjz-9" value="&lt;span style=&quot;font-size: 18px;&quot;&gt;upbud1&lt;/span&gt;" style="rounded=0;whiteSpace=wrap;html=1;" vertex="1" parent="1">
          <mxGeometry x="320" y="560" width="120" height="60" as="geometry" />
        </mxCell>
        <mxCell id="0yohmy16e6GAOJUEdsjz-10" value="&lt;span style=&quot;font-size: 18px;&quot;&gt;upbud2&lt;/span&gt;" style="rounded=0;whiteSpace=wrap;html=1;" vertex="1" parent="1">
          <mxGeometry x="480" y="560" width="120" height="60" as="geometry" />
        </mxCell>
        <mxCell id="0yohmy16e6GAOJUEdsjz-11" value="&lt;span style=&quot;font-size: 18px;&quot;&gt;counter1&lt;/span&gt;" style="rounded=0;whiteSpace=wrap;html=1;" vertex="1" parent="1">
          <mxGeometry x="720" y="560" width="120" height="60" as="geometry" />
        </mxCell>
        <mxCell id="0yohmy16e6GAOJUEdsjz-12" value="&lt;span style=&quot;font-size: 18px;&quot;&gt;counter2&lt;/span&gt;" style="rounded=0;whiteSpace=wrap;html=1;" vertex="1" parent="1">
          <mxGeometry x="880" y="560" width="120" height="60" as="geometry" />
        </mxCell>
>>>>>>> Stashed changes
      </root>
    </mxGraphModel>
  </diagram>
  <diagram id="WKWb2CbXLe9SnHU5zs_P" name="AOV">
<<<<<<< Updated upstream
    <mxGraphModel dx="1434" dy="884" grid="1" gridSize="10" guides="1" tooltips="1" connect="1" arrows="1" fold="1" page="1" pageScale="1" pageWidth="1600" pageHeight="1200" math="0" shadow="0">
      <root>
        <mxCell id="0" />
        <mxCell id="1" parent="0" />
=======
    <mxGraphModel dx="1235" dy="787" grid="1" gridSize="10" guides="1" tooltips="1" connect="1" arrows="1" fold="1" page="1" pageScale="1" pageWidth="1600" pageHeight="1200" math="0" shadow="0">
      <root>
        <mxCell id="0" />
        <mxCell id="1" parent="0" />
        <mxCell id="rel-kOEEUKi3PAxP8hPW-1" value="&lt;font style=&quot;font-size: 18px;&quot;&gt;Duty_cycle&lt;/font&gt;" style="text;html=1;align=center;verticalAlign=middle;resizable=0;points=[];autosize=1;strokeColor=none;fillColor=none;" vertex="1" parent="1">
          <mxGeometry x="115" y="193" width="110" height="40" as="geometry" />
        </mxCell>
        <mxCell id="rel-kOEEUKi3PAxP8hPW-9" style="rounded=0;orthogonalLoop=1;jettySize=auto;html=1;exitX=1;exitY=0.5;exitDx=0;exitDy=0;entryX=0;entryY=0.5;entryDx=0;entryDy=0;" edge="1" parent="1" source="rel-kOEEUKi3PAxP8hPW-2" target="rel-kOEEUKi3PAxP8hPW-8">
          <mxGeometry relative="1" as="geometry" />
        </mxCell>
        <mxCell id="rel-kOEEUKi3PAxP8hPW-2" value="&lt;font style=&quot;font-size: 19px;&quot;&gt;upbnd1&lt;/font&gt;" style="ellipse;whiteSpace=wrap;html=1;aspect=fixed;" vertex="1" parent="1">
          <mxGeometry x="320" y="240" width="80" height="80" as="geometry" />
        </mxCell>
        <mxCell id="rel-kOEEUKi3PAxP8hPW-10" style="rounded=0;orthogonalLoop=1;jettySize=auto;html=1;exitX=1;exitY=0.5;exitDx=0;exitDy=0;entryX=0;entryY=0.5;entryDx=0;entryDy=0;" edge="1" parent="1" source="rel-kOEEUKi3PAxP8hPW-3" target="rel-kOEEUKi3PAxP8hPW-8">
          <mxGeometry relative="1" as="geometry" />
        </mxCell>
        <mxCell id="rel-kOEEUKi3PAxP8hPW-3" value="&lt;font style=&quot;font-size: 19px;&quot;&gt;upbnd2&lt;/font&gt;" style="ellipse;whiteSpace=wrap;html=1;aspect=fixed;" vertex="1" parent="1">
          <mxGeometry x="320" y="360" width="80" height="80" as="geometry" />
        </mxCell>
        <mxCell id="rel-kOEEUKi3PAxP8hPW-6" style="rounded=0;orthogonalLoop=1;jettySize=auto;html=1;exitX=1;exitY=0.5;exitDx=0;exitDy=0;entryX=0;entryY=0.5;entryDx=0;entryDy=0;" edge="1" parent="1" source="rel-kOEEUKi3PAxP8hPW-5" target="rel-kOEEUKi3PAxP8hPW-2">
          <mxGeometry relative="1" as="geometry" />
        </mxCell>
        <mxCell id="rel-kOEEUKi3PAxP8hPW-7" style="rounded=0;orthogonalLoop=1;jettySize=auto;html=1;exitX=1;exitY=0.5;exitDx=0;exitDy=0;entryX=0;entryY=0.5;entryDx=0;entryDy=0;" edge="1" parent="1" source="rel-kOEEUKi3PAxP8hPW-5" target="rel-kOEEUKi3PAxP8hPW-3">
          <mxGeometry relative="1" as="geometry" />
        </mxCell>
        <mxCell id="rel-kOEEUKi3PAxP8hPW-5" value="&lt;font style=&quot;font-size: 18px;&quot;&gt;Start&lt;/font&gt;" style="rounded=0;whiteSpace=wrap;html=1;strokeColor=none;" vertex="1" parent="1">
          <mxGeometry x="180" y="320" width="60" height="40" as="geometry" />
        </mxCell>
        <mxCell id="rel-kOEEUKi3PAxP8hPW-8" value="&lt;font style=&quot;font-size: 18px;&quot;&gt;END&lt;/font&gt;" style="rounded=0;whiteSpace=wrap;html=1;strokeColor=none;" vertex="1" parent="1">
          <mxGeometry x="480" y="320" width="60" height="40" as="geometry" />
        </mxCell>
        <mxCell id="rel-kOEEUKi3PAxP8hPW-11" value="254clk" style="text;html=1;align=center;verticalAlign=middle;resizable=0;points=[];autosize=1;strokeColor=none;fillColor=none;" vertex="1" parent="1">
          <mxGeometry x="420" y="278" width="60" height="30" as="geometry" />
        </mxCell>
        <mxCell id="rel-kOEEUKi3PAxP8hPW-12" value="254clk" style="text;html=1;align=center;verticalAlign=middle;resizable=0;points=[];autosize=1;strokeColor=none;fillColor=none;" vertex="1" parent="1">
          <mxGeometry x="420" y="370" width="60" height="30" as="geometry" />
        </mxCell>
        <mxCell id="rel-kOEEUKi3PAxP8hPW-13" value="&lt;font style=&quot;font-size: 18px;&quot;&gt;PWM&lt;/font&gt;" style="text;html=1;align=center;verticalAlign=middle;resizable=0;points=[];autosize=1;strokeColor=none;fillColor=none;" vertex="1" parent="1">
          <mxGeometry x="140" y="520" width="70" height="40" as="geometry" />
        </mxCell>
        <mxCell id="rel-kOEEUKi3PAxP8hPW-18" style="edgeStyle=orthogonalEdgeStyle;rounded=0;orthogonalLoop=1;jettySize=auto;html=1;exitX=1;exitY=0.5;exitDx=0;exitDy=0;entryX=0;entryY=0.5;entryDx=0;entryDy=0;" edge="1" parent="1" source="rel-kOEEUKi3PAxP8hPW-14" target="rel-kOEEUKi3PAxP8hPW-15">
          <mxGeometry relative="1" as="geometry" />
        </mxCell>
        <mxCell id="rel-kOEEUKi3PAxP8hPW-14" value="&lt;font style=&quot;font-size: 19px;&quot;&gt;D&lt;/font&gt;" style="ellipse;whiteSpace=wrap;html=1;aspect=fixed;" vertex="1" parent="1">
          <mxGeometry x="200" y="600" width="80" height="80" as="geometry" />
        </mxCell>
        <mxCell id="rel-kOEEUKi3PAxP8hPW-19" style="edgeStyle=orthogonalEdgeStyle;rounded=0;orthogonalLoop=1;jettySize=auto;html=1;exitX=1;exitY=0.5;exitDx=0;exitDy=0;entryX=0;entryY=0.5;entryDx=0;entryDy=0;" edge="1" parent="1" source="rel-kOEEUKi3PAxP8hPW-15" target="rel-kOEEUKi3PAxP8hPW-16">
          <mxGeometry relative="1" as="geometry" />
        </mxCell>
        <mxCell id="rel-kOEEUKi3PAxP8hPW-15" value="&lt;font style=&quot;font-size: 19px;&quot;&gt;Count1&lt;/font&gt;" style="ellipse;whiteSpace=wrap;html=1;aspect=fixed;" vertex="1" parent="1">
          <mxGeometry x="360" y="600" width="80" height="80" as="geometry" />
        </mxCell>
        <mxCell id="rel-kOEEUKi3PAxP8hPW-20" style="edgeStyle=orthogonalEdgeStyle;rounded=0;orthogonalLoop=1;jettySize=auto;html=1;exitX=1;exitY=0.5;exitDx=0;exitDy=0;entryX=0;entryY=0.5;entryDx=0;entryDy=0;" edge="1" parent="1" source="rel-kOEEUKi3PAxP8hPW-16" target="rel-kOEEUKi3PAxP8hPW-17">
          <mxGeometry relative="1" as="geometry" />
        </mxCell>
        <mxCell id="rel-kOEEUKi3PAxP8hPW-16" value="&lt;span style=&quot;font-size: 19px;&quot;&gt;Count2&lt;/span&gt;" style="ellipse;whiteSpace=wrap;html=1;aspect=fixed;" vertex="1" parent="1">
          <mxGeometry x="520" y="600" width="80" height="80" as="geometry" />
        </mxCell>
        <mxCell id="rel-kOEEUKi3PAxP8hPW-17" value="&lt;font style=&quot;font-size: 19px;&quot;&gt;PWM&lt;/font&gt;&lt;div&gt;&lt;font style=&quot;font-size: 19px;&quot;&gt;count&lt;/font&gt;&lt;/div&gt;" style="ellipse;whiteSpace=wrap;html=1;aspect=fixed;" vertex="1" parent="1">
          <mxGeometry x="680" y="600" width="80" height="80" as="geometry" />
        </mxCell>
        <mxCell id="rel-kOEEUKi3PAxP8hPW-21" value="1clk" style="text;html=1;align=center;verticalAlign=middle;resizable=0;points=[];autosize=1;strokeColor=none;fillColor=none;" vertex="1" parent="1">
          <mxGeometry x="300" y="608" width="40" height="30" as="geometry" />
        </mxCell>
        <mxCell id="rel-kOEEUKi3PAxP8hPW-22" value="upbnd1 個 clk" style="text;html=1;align=center;verticalAlign=middle;resizable=0;points=[];autosize=1;strokeColor=none;fillColor=none;" vertex="1" parent="1">
          <mxGeometry x="430" y="608" width="100" height="30" as="geometry" />
        </mxCell>
        <mxCell id="rel-kOEEUKi3PAxP8hPW-23" value="upbnd2 個 clk" style="text;html=1;align=center;verticalAlign=middle;resizable=0;points=[];autosize=1;strokeColor=none;fillColor=none;" vertex="1" parent="1">
          <mxGeometry x="590" y="608" width="100" height="30" as="geometry" />
        </mxCell>
        <mxCell id="rel-kOEEUKi3PAxP8hPW-25" value="&lt;ul&gt;&lt;li&gt;&lt;font style=&quot;font-size: 18px;&quot;&gt;D：upbnd duty_cycle&lt;/font&gt;&lt;/li&gt;&lt;/ul&gt;" style="text;strokeColor=none;fillColor=none;html=1;whiteSpace=wrap;verticalAlign=middle;overflow=hidden;" vertex="1" parent="1">
          <mxGeometry x="210" y="720" width="240" height="80" as="geometry" />
        </mxCell>
        <mxCell id="rel-kOEEUKi3PAxP8hPW-26" style="rounded=0;orthogonalLoop=1;jettySize=auto;html=1;exitX=1;exitY=0.5;exitDx=0;exitDy=0;entryX=0;entryY=0.5;entryDx=0;entryDy=0;" edge="1" parent="1" target="rel-kOEEUKi3PAxP8hPW-32">
          <mxGeometry relative="1" as="geometry">
            <mxPoint x="400" y="902" as="sourcePoint" />
          </mxGeometry>
        </mxCell>
        <mxCell id="rel-kOEEUKi3PAxP8hPW-27" style="rounded=0;orthogonalLoop=1;jettySize=auto;html=1;exitX=1;exitY=0.5;exitDx=0;exitDy=0;entryX=0;entryY=0.5;entryDx=0;entryDy=0;" edge="1" parent="1" source="rel-kOEEUKi3PAxP8hPW-28" target="rel-kOEEUKi3PAxP8hPW-32">
          <mxGeometry relative="1" as="geometry" />
        </mxCell>
        <mxCell id="rel-kOEEUKi3PAxP8hPW-28" value="&lt;font style=&quot;font-size: 19px;&quot;&gt;PWM&lt;/font&gt;" style="ellipse;whiteSpace=wrap;html=1;aspect=fixed;" vertex="1" parent="1">
          <mxGeometry x="320" y="982" width="80" height="80" as="geometry" />
        </mxCell>
        <mxCell id="rel-kOEEUKi3PAxP8hPW-29" style="rounded=0;orthogonalLoop=1;jettySize=auto;html=1;exitX=1;exitY=0.5;exitDx=0;exitDy=0;entryX=0;entryY=0.5;entryDx=0;entryDy=0;" edge="1" parent="1" source="rel-kOEEUKi3PAxP8hPW-31">
          <mxGeometry relative="1" as="geometry">
            <mxPoint x="320" y="902" as="targetPoint" />
          </mxGeometry>
        </mxCell>
        <mxCell id="rel-kOEEUKi3PAxP8hPW-30" style="rounded=0;orthogonalLoop=1;jettySize=auto;html=1;exitX=1;exitY=0.5;exitDx=0;exitDy=0;entryX=0;entryY=0.5;entryDx=0;entryDy=0;" edge="1" parent="1" source="rel-kOEEUKi3PAxP8hPW-31" target="rel-kOEEUKi3PAxP8hPW-28">
          <mxGeometry relative="1" as="geometry" />
        </mxCell>
        <mxCell id="rel-kOEEUKi3PAxP8hPW-31" value="&lt;font style=&quot;font-size: 18px;&quot;&gt;Start&lt;/font&gt;" style="rounded=0;whiteSpace=wrap;html=1;strokeColor=none;" vertex="1" parent="1">
          <mxGeometry x="180" y="942" width="60" height="40" as="geometry" />
        </mxCell>
        <mxCell id="rel-kOEEUKi3PAxP8hPW-32" value="&lt;font style=&quot;font-size: 18px;&quot;&gt;END&lt;/font&gt;" style="rounded=0;whiteSpace=wrap;html=1;strokeColor=none;" vertex="1" parent="1">
          <mxGeometry x="480" y="942" width="60" height="40" as="geometry" />
        </mxCell>
        <mxCell id="rel-kOEEUKi3PAxP8hPW-33" value="508clk" style="text;html=1;align=center;verticalAlign=middle;resizable=0;points=[];autosize=1;strokeColor=none;fillColor=none;" vertex="1" parent="1">
          <mxGeometry x="420" y="900" width="60" height="30" as="geometry" />
        </mxCell>
        <mxCell id="rel-kOEEUKi3PAxP8hPW-34" value="D+1 個 clk" style="text;html=1;align=center;verticalAlign=middle;resizable=0;points=[];autosize=1;strokeColor=none;fillColor=none;" vertex="1" parent="1">
          <mxGeometry x="420" y="992" width="80" height="30" as="geometry" />
        </mxCell>
        <mxCell id="rel-kOEEUKi3PAxP8hPW-35" value="&lt;font style=&quot;font-size: 19px;&quot;&gt;duty&lt;/font&gt;&lt;div&gt;&lt;font style=&quot;font-size: 19px;&quot;&gt;cycle&lt;/font&gt;&lt;/div&gt;" style="ellipse;whiteSpace=wrap;html=1;aspect=fixed;" vertex="1" parent="1">
          <mxGeometry x="320" y="862" width="80" height="80" as="geometry" />
        </mxCell>
>>>>>>> Stashed changes
      </root>
    </mxGraphModel>
  </diagram>
  <diagram id="FkeSSTnysuetlmmCKEoc" name="MSC">
<<<<<<< Updated upstream
    <mxGraphModel dx="1434" dy="884" grid="1" gridSize="10" guides="1" tooltips="1" connect="1" arrows="1" fold="1" page="1" pageScale="1" pageWidth="1600" pageHeight="1200" math="0" shadow="0">
      <root>
        <mxCell id="0" />
        <mxCell id="1" parent="0" />
=======
    <mxGraphModel dx="1050" dy="669" grid="1" gridSize="10" guides="1" tooltips="1" connect="1" arrows="1" fold="1" page="1" pageScale="1" pageWidth="1600" pageHeight="1200" math="0" shadow="0">
      <root>
        <mxCell id="0" />
        <mxCell id="1" parent="0" />
        <mxCell id="jM_NlHyR9ycWCUt7lU-t-3" style="edgeStyle=orthogonalEdgeStyle;rounded=0;orthogonalLoop=1;jettySize=auto;html=1;exitX=1;exitY=0.5;exitDx=0;exitDy=0;endArrow=none;endFill=0;dashed=1;strokeColor=#999999;" edge="1" parent="1" source="8vLGdcgxIfXtJcVEStw5-1">
          <mxGeometry relative="1" as="geometry">
            <mxPoint x="1080" y="665" as="targetPoint" />
          </mxGeometry>
        </mxCell>
        <mxCell id="8vLGdcgxIfXtJcVEStw5-1" value="&lt;span style=&quot;font-size: 18px;&quot;&gt;upbud1&lt;/span&gt;" style="rounded=0;whiteSpace=wrap;html=1;strokeColor=none;fillColor=none;" vertex="1" parent="1">
          <mxGeometry x="200" y="650" width="80" height="30" as="geometry" />
        </mxCell>
        <mxCell id="jM_NlHyR9ycWCUt7lU-t-4" style="edgeStyle=orthogonalEdgeStyle;rounded=0;orthogonalLoop=1;jettySize=auto;html=1;exitX=1;exitY=0.5;exitDx=0;exitDy=0;endArrow=none;endFill=0;dashed=1;strokeColor=#999999;" edge="1" parent="1" source="8vLGdcgxIfXtJcVEStw5-2">
          <mxGeometry relative="1" as="geometry">
            <mxPoint x="1080" y="725" as="targetPoint" />
          </mxGeometry>
        </mxCell>
        <mxCell id="8vLGdcgxIfXtJcVEStw5-2" value="&lt;span style=&quot;font-size: 18px;&quot;&gt;upbud2&lt;/span&gt;" style="rounded=0;whiteSpace=wrap;html=1;strokeColor=none;fillColor=none;" vertex="1" parent="1">
          <mxGeometry x="200" y="710" width="80" height="30" as="geometry" />
        </mxCell>
        <mxCell id="jM_NlHyR9ycWCUt7lU-t-6" style="edgeStyle=orthogonalEdgeStyle;rounded=0;orthogonalLoop=1;jettySize=auto;html=1;exitX=1;exitY=0.5;exitDx=0;exitDy=0;endArrow=none;endFill=0;dashed=1;strokeColor=#999999;" edge="1" parent="1" source="8vLGdcgxIfXtJcVEStw5-3">
          <mxGeometry relative="1" as="geometry">
            <mxPoint x="1080" y="785" as="targetPoint" />
          </mxGeometry>
        </mxCell>
        <mxCell id="8vLGdcgxIfXtJcVEStw5-3" value="&lt;span style=&quot;font-size: 18px;&quot;&gt;counter1&lt;/span&gt;" style="rounded=0;whiteSpace=wrap;html=1;strokeColor=none;fillColor=none;" vertex="1" parent="1">
          <mxGeometry x="200" y="770" width="80" height="30" as="geometry" />
        </mxCell>
        <mxCell id="jM_NlHyR9ycWCUt7lU-t-7" style="edgeStyle=orthogonalEdgeStyle;rounded=0;orthogonalLoop=1;jettySize=auto;html=1;exitX=1;exitY=0.5;exitDx=0;exitDy=0;endArrow=none;endFill=0;dashed=1;strokeColor=#999999;" edge="1" parent="1" source="8vLGdcgxIfXtJcVEStw5-4">
          <mxGeometry relative="1" as="geometry">
            <mxPoint x="1080" y="855" as="targetPoint" />
          </mxGeometry>
        </mxCell>
        <mxCell id="8vLGdcgxIfXtJcVEStw5-4" value="&lt;span style=&quot;font-size: 18px;&quot;&gt;counter2&lt;/span&gt;" style="rounded=0;whiteSpace=wrap;html=1;strokeColor=none;fillColor=none;" vertex="1" parent="1">
          <mxGeometry x="200" y="840" width="80" height="30" as="geometry" />
        </mxCell>
        <mxCell id="jM_NlHyR9ycWCUt7lU-t-2" style="edgeStyle=orthogonalEdgeStyle;rounded=0;orthogonalLoop=1;jettySize=auto;html=1;exitX=1;exitY=0.5;exitDx=0;exitDy=0;endArrow=none;endFill=0;dashed=1;strokeColor=#999999;" edge="1" parent="1" source="y6luNVOS6S3SxOt5q1bo-1">
          <mxGeometry relative="1" as="geometry">
            <mxPoint x="1080" y="535" as="targetPoint" />
          </mxGeometry>
        </mxCell>
        <mxCell id="y6luNVOS6S3SxOt5q1bo-1" value="&lt;span style=&quot;font-size: 18px;&quot;&gt;調節&lt;/span&gt;" style="rounded=0;whiteSpace=wrap;html=1;strokeColor=none;fillColor=none;" vertex="1" parent="1">
          <mxGeometry x="200" y="520" width="80" height="30" as="geometry" />
        </mxCell>
        <mxCell id="jM_NlHyR9ycWCUt7lU-t-1" style="edgeStyle=orthogonalEdgeStyle;rounded=0;orthogonalLoop=1;jettySize=auto;html=1;exitX=1;exitY=0.5;exitDx=0;exitDy=0;endArrow=none;endFill=0;dashed=1;strokeColor=#808080;" edge="1" parent="1" source="VtxSZF-rScdEc--bbOqi-1">
          <mxGeometry relative="1" as="geometry">
            <mxPoint x="1080" y="465" as="targetPoint" />
          </mxGeometry>
        </mxCell>
        <mxCell id="VtxSZF-rScdEc--bbOqi-1" value="&lt;span style=&quot;font-size: 18px;&quot;&gt;PWM_counter&lt;/span&gt;" style="rounded=0;whiteSpace=wrap;html=1;strokeColor=none;fillColor=none;" vertex="1" parent="1">
          <mxGeometry x="150" y="450" width="130" height="30" as="geometry" />
        </mxCell>
        <mxCell id="jM_NlHyR9ycWCUt7lU-t-5" style="edgeStyle=orthogonalEdgeStyle;rounded=0;orthogonalLoop=1;jettySize=auto;html=1;exitX=1;exitY=0.5;exitDx=0;exitDy=0;endArrow=none;endFill=0;dashed=1;strokeColor=#999999;" edge="1" parent="1" source="Wj-rJT6vam45b-8Gxgll-1">
          <mxGeometry relative="1" as="geometry">
            <mxPoint x="1080" y="595" as="targetPoint" />
          </mxGeometry>
        </mxCell>
        <mxCell id="Wj-rJT6vam45b-8Gxgll-1" value="&lt;span style=&quot;font-size: 18px;&quot;&gt;state&lt;/span&gt;" style="rounded=0;whiteSpace=wrap;html=1;strokeColor=none;fillColor=none;" vertex="1" parent="1">
          <mxGeometry x="200" y="580" width="80" height="30" as="geometry" />
        </mxCell>
        <mxCell id="nzVP8oHgQo8vZbnEfGNg-1" value="&lt;font style=&quot;font-size: 18px;&quot;&gt;state0&lt;/font&gt;" style="rounded=0;whiteSpace=wrap;html=1;" vertex="1" parent="1">
          <mxGeometry x="280" y="580" width="100" height="40" as="geometry" />
        </mxCell>
>>>>>>> Stashed changes
      </root>
    </mxGraphModel>
  </diagram>
  <diagram id="6qGAxd7QoQTDxYAQNoRQ" name="架構圖">
    <mxGraphModel dx="1434" dy="884" grid="1" gridSize="10" guides="1" tooltips="1" connect="1" arrows="1" fold="1" page="1" pageScale="1" pageWidth="1600" pageHeight="1200" math="0" shadow="0">
      <root>
        <mxCell id="0" />
        <mxCell id="1" parent="0" />
      </root>
    </mxGraphModel>
  </diagram>
</mxfile>
